<svg width="38" height="40" viewBox="0 0 38 40" fill="none" xmlns="http://www.w3.org/2000/svg">
<path d="M3.54026 40.0004L2.76137 39.2219L7.0253 34.9584L0 27.9386L0.782705 27.1602L8.5869 34.9584L3.54026 40.0004Z" fill="white"/>
<path d="M37.6745 34.4062H7.80225V35.5102H37.6745V34.4062Z" fill="white"/>
<path d="M10.3258 0.751572C10.3134 0.640571 10.3296 0.528235 10.3728 0.425247C10.4161 0.322259 10.485 0.232044 10.573 0.163179C10.661 0.0943151 10.7651 0.0490912 10.8755 0.0318101C10.9859 0.014529 11.0989 0.0257643 11.2038 0.0644477L17.4026 2.34852L11.1809 8.34801L10.3258 0.751572Z" fill="#502D17"/>
<path d="M32.2473 0.751792C32.2601 0.640879 32.2442 0.52853 32.2012 0.425481C32.1582 0.322433 32.0895 0.232129 32.0016 0.163199C31.9138 0.0942682 31.8097 0.0490157 31.6993 0.0317653C31.5889 0.0145149 31.476 0.0258426 31.3712 0.0646672L25.1705 2.34874L31.3941 8.34823L32.2473 0.751792Z" fill="#502D17"/>
<path d="M21.36 33.6899C29.6248 33.6899 36.3247 27.942 36.3247 20.8516C36.3247 13.7611 29.6248 8.01318 21.36 8.01318C13.0952 8.01318 6.39526 13.7611 6.39526 20.8516C6.39526 27.942 13.0952 33.6899 21.36 33.6899Z" fill="#794422"/>
<path d="M33.7422 17.3399C33.7422 26.914 28.1985 34.676 21.3637 34.676C14.5288 34.676 8.98511 26.914 8.98511 17.3399C8.98511 7.76584 14.5288 0 21.3637 0C28.1985 0 33.7422 7.76965 33.7422 17.3399Z" fill="#502D17"/>
<path d="M16.3608 18.0231C19.5497 18.0231 22.1349 15.0797 22.1349 11.4488C22.1349 7.81793 19.5497 4.87451 16.3608 4.87451C13.1718 4.87451 10.5867 7.81793 10.5867 11.4488C10.5867 15.0797 13.1718 18.0231 16.3608 18.0231Z" fill="white"/>
<path d="M29.9848 24.5115C29.9848 28.9407 26.1227 32.5324 21.3599 32.5324C16.597 32.5324 12.7444 28.9502 12.7444 24.5115C12.7444 20.0728 16.6046 16.4868 21.3675 16.4868C26.1304 16.4868 29.9848 20.0785 29.9848 24.5115Z" fill="white"/>
<path d="M32.0243 11.44C32.0243 15.0717 29.4381 18.0143 26.2483 18.0143C23.0584 18.0143 20.4761 15.0793 20.4761 11.44C20.4761 7.8007 23.0603 4.86377 26.2483 4.86377C29.4362 4.86377 32.0243 7.82354 32.0243 11.44Z" fill="white"/>
<path d="M20.8856 13.6872C21.2053 13.5626 21.5606 13.5661 21.8778 13.6967C22.7933 14.0506 23.6053 14.6285 24.2393 15.3774C24.3381 15.501 24.396 15.6522 24.4048 15.8101C24.4137 15.9681 24.3732 16.1248 24.2888 16.2587C23.6316 17.278 22.7924 18.1677 21.8131 18.8835C21.6912 18.9759 21.5424 19.026 21.3894 19.026C21.2363 19.026 21.0875 18.9759 20.9656 18.8835C19.9854 18.1688 19.146 17.2788 18.4899 16.2587C18.4049 16.1267 18.3641 15.9711 18.3734 15.8144C18.3826 15.6577 18.4414 15.508 18.5413 15.3869C19.1547 14.619 19.9649 14.0316 20.8856 13.6872Z" fill="#FF7F2B"/>
<path d="M20.7847 20.4443C20.7847 20.7503 20.6631 21.0436 20.4467 21.26C20.2302 21.4763 19.9367 21.5978 19.6306 21.5978C19.3245 21.5978 19.031 21.4763 18.8146 21.26C18.5982 21.0436 18.4766 20.7503 18.4766 20.4443H20.7847Z" fill="#D6D6D6"/>
<path d="M24.2907 20.4443C24.2907 20.7503 24.1691 21.0436 23.9527 21.26C23.7362 21.4763 23.4427 21.5978 23.1366 21.5978C22.8305 21.5978 22.537 21.4763 22.3206 21.26C22.1041 21.0436 21.9825 20.7503 21.9825 20.4443H24.2907Z" fill="#D6D6D6"/>
<path d="M19.0288 22.7432C19.0288 23.0491 18.9072 23.3425 18.6908 23.5588C18.4744 23.7751 18.1808 23.8966 17.8748 23.8966C17.5687 23.8966 17.2751 23.7751 17.0587 23.5588C16.8423 23.3425 16.7207 23.0491 16.7207 22.7432H19.0288Z" fill="#D6D6D6"/>
<path d="M22.5403 22.7432C22.5403 23.0491 22.4187 23.3425 22.2023 23.5588C21.9859 23.7751 21.6923 23.8966 21.3862 23.8966C21.0802 23.8966 20.7866 23.7751 20.5702 23.5588C20.3538 23.3425 20.2322 23.0491 20.2322 22.7432H22.5403Z" fill="#D6D6D6"/>
<path d="M26.0446 22.7432C26.0446 23.0491 25.923 23.3425 25.7066 23.5588C25.4901 23.7751 25.1966 23.8966 24.8905 23.8966C24.5844 23.8966 24.2909 23.7751 24.0745 23.5588C23.858 23.3425 23.7365 23.0491 23.7365 22.7432H26.0446Z" fill="#D6D6D6"/>
<path d="M17.2805 24.9951C17.2805 25.301 17.1589 25.5944 16.9425 25.8107C16.7261 26.027 16.4325 26.1486 16.1265 26.1486C15.8204 26.1486 15.5269 26.027 15.3104 25.8107C15.094 25.5944 14.9724 25.301 14.9724 24.9951H17.2805Z" fill="#D6D6D6"/>
<path d="M20.7847 24.9951C20.7847 25.301 20.6631 25.5944 20.4467 25.8107C20.2302 26.027 19.9367 26.1486 19.6306 26.1486C19.3245 26.1486 19.031 26.027 18.8146 25.8107C18.5982 25.5944 18.4766 25.301 18.4766 24.9951H20.7847Z" fill="#D6D6D6"/>
<path d="M24.2907 24.9951C24.2907 25.301 24.1691 25.5944 23.9527 25.8107C23.7362 26.027 23.4427 26.1486 23.1366 26.1486C22.8305 26.1486 22.537 26.027 22.3206 25.8107C22.1041 25.5944 21.9825 25.301 21.9825 24.9951H24.2907Z" fill="#D6D6D6"/>
<path d="M27.8005 24.9951C27.7884 25.2932 27.6614 25.575 27.4461 25.7816C27.2308 25.9882 26.944 26.1036 26.6455 26.1036C26.347 26.1036 26.0601 25.9882 25.8449 25.7816C25.6296 25.575 25.5026 25.2932 25.4905 24.9951H27.8005Z" fill="#D6D6D6"/>
<path d="M19.0288 27.2949C19.0288 27.6008 18.9072 27.8942 18.6908 28.1105C18.4744 28.3269 18.1808 28.4484 17.8748 28.4484C17.5687 28.4484 17.2751 28.3269 17.0587 28.1105C16.8423 27.8942 16.7207 27.6008 16.7207 27.2949H19.0288Z" fill="#D6D6D6"/>
<path d="M22.5403 27.2949C22.5403 27.6008 22.4187 27.8942 22.2023 28.1105C21.9859 28.3269 21.6923 28.4484 21.3862 28.4484C21.0802 28.4484 20.7866 28.3269 20.5702 28.1105C20.3538 27.8942 20.2322 27.6008 20.2322 27.2949H22.5403Z" fill="#D6D6D6"/>
<path d="M26.0446 27.2949C26.0446 27.6008 25.923 27.8942 25.7066 28.1105C25.4901 28.3269 25.1966 28.4484 24.8905 28.4484C24.5844 28.4484 24.2909 28.3269 24.0745 28.1105C23.858 27.8942 23.7365 27.6008 23.7365 27.2949H26.0446Z" fill="#D6D6D6"/>
<path d="M20.7847 29.5449C20.7847 29.8508 20.6631 30.1442 20.4467 30.3605C20.2302 30.5769 19.9367 30.6984 19.6306 30.6984C19.3245 30.6984 19.031 30.5769 18.8146 30.3605C18.5982 30.1442 18.4766 29.8508 18.4766 29.5449H20.7847Z" fill="#D6D6D6"/>
<path d="M24.2907 29.5449C24.2907 29.8508 24.1691 30.1442 23.9527 30.3605C23.7362 30.5769 23.4427 30.6984 23.1366 30.6984C22.8305 30.6984 22.537 30.5769 22.3206 30.3605C22.1041 30.1442 21.9825 29.8508 21.9825 29.5449H24.2907Z" fill="#D6D6D6"/>
<path d="M17.115 14.0658C18.9703 14.0658 20.4743 12.5625 20.4743 10.7082C20.4743 8.85383 18.9703 7.35059 17.115 7.35059C15.2596 7.35059 13.7556 8.85383 13.7556 10.7082C13.7556 12.5625 15.2596 14.0658 17.115 14.0658Z" fill="#C2DDEB"/>
<path d="M17.1149 12.813C18.2761 12.813 19.2174 11.8722 19.2174 10.7117C19.2174 9.55115 18.2761 8.61035 17.1149 8.61035C15.9537 8.61035 15.0125 9.55115 15.0125 10.7117C15.0125 11.8722 15.9537 12.813 17.1149 12.813Z" fill="black"/>
<path d="M17.6463 10.7122C18.0765 10.7122 18.4252 10.3637 18.4252 9.93376C18.4252 9.50381 18.0765 9.15527 17.6463 9.15527C17.2162 9.15527 16.8674 9.50381 16.8674 9.93376C16.8674 10.3637 17.2162 10.7122 17.6463 10.7122Z" fill="white"/>
<path d="M25.3361 14.0715C27.1925 14.0715 28.6974 12.5674 28.6974 10.712C28.6974 8.85663 27.1925 7.35254 25.3361 7.35254C23.4797 7.35254 21.9749 8.85663 21.9749 10.712C21.9749 12.5674 23.4797 14.0715 25.3361 14.0715Z" fill="#C2DDEB"/>
<path d="M25.3362 12.813C26.4974 12.813 27.4387 11.8722 27.4387 10.7117C27.4387 9.55115 26.4974 8.61035 25.3362 8.61035C24.1751 8.61035 23.2338 9.55115 23.2338 10.7117C23.2338 11.8722 24.1751 12.813 25.3362 12.813Z" fill="black"/>
<path d="M25.8636 10.7122C26.2938 10.7122 26.6425 10.3637 26.6425 9.93376C26.6425 9.50381 26.2938 9.15527 25.8636 9.15527C25.4334 9.15527 25.0847 9.50381 25.0847 9.93376C25.0847 10.3637 25.4334 10.7122 25.8636 10.7122Z" fill="white"/>
<path d="M28.3317 34.6879C28.3317 35.5749 27.8422 36.2905 27.2405 36.2905C26.6387 36.2905 26.1492 35.5749 26.1492 34.6879C26.1492 35.5749 25.6598 36.2905 25.0561 36.2905C24.4524 36.2905 23.9649 35.5749 23.9649 34.6879C23.9649 35.5749 23.4774 36.2905 22.8737 36.2905C22.27 36.2905 21.7825 35.5749 21.7825 34.6879C21.7825 33.4374 23.2431 32.4229 25.0466 32.4229C26.8501 32.4229 28.3126 33.4374 28.3126 34.6879H28.3317Z" fill="#FF7F2B"/>
<path d="M20.8876 34.6879C20.8876 35.5749 20.3982 36.2905 19.7964 36.2905C19.1946 36.2905 18.7032 35.5749 18.7032 34.6879C18.7032 35.5749 18.2157 36.2905 17.612 36.2905C17.0083 36.2905 16.5208 35.5749 16.5208 34.6879C16.5208 35.5749 16.0314 36.2905 15.4296 36.2905C14.8278 36.2905 14.3384 35.5749 14.3384 34.6879C14.3384 33.4374 15.799 32.4229 17.6025 32.4229C19.406 32.4229 20.8685 33.4374 20.8685 34.6879H20.8876Z" fill="#FF7F2B"/>
</svg>