<svg width="162" height="40" viewBox="0 0 162 40" fill="none" xmlns="http://www.w3.org/2000/svg">
<path d="M3.54026 40.0004L2.76137 39.2219L7.0253 34.9584L0 27.9386L0.782705 27.1602L8.5869 34.9584L3.54026 40.0004Z" fill="white"/>
<path d="M37.6745 34.4062H7.80225V35.5102H37.6745V34.4062Z" fill="white"/>
<path d="M10.3258 0.751572C10.3134 0.640571 10.3296 0.528235 10.3728 0.425247C10.4161 0.322259 10.485 0.232044 10.573 0.163179C10.661 0.0943151 10.7651 0.0490912 10.8755 0.0318101C10.9859 0.014529 11.0989 0.0257643 11.2038 0.0644477L17.4026 2.34852L11.1809 8.34801L10.3258 0.751572Z" fill="#502D17"/>
<path d="M32.2473 0.751792C32.2601 0.640879 32.2442 0.52853 32.2012 0.425481C32.1582 0.322433 32.0895 0.232129 32.0016 0.163199C31.9138 0.0942682 31.8097 0.0490157 31.6993 0.0317653C31.5889 0.0145149 31.476 0.0258426 31.3712 0.0646672L25.1705 2.34874L31.3941 8.34823L32.2473 0.751792Z" fill="#502D17"/>
<path d="M21.36 33.6899C29.6248 33.6899 36.3247 27.942 36.3247 20.8516C36.3247 13.7611 29.6248 8.01318 21.36 8.01318C13.0952 8.01318 6.39526 13.7611 6.39526 20.8516C6.39526 27.942 13.0952 33.6899 21.36 33.6899Z" fill="#794422"/>
<path d="M33.7422 17.3399C33.7422 26.914 28.1985 34.676 21.3637 34.676C14.5288 34.676 8.98511 26.914 8.98511 17.3399C8.98511 7.76584 14.5288 0 21.3637 0C28.1985 0 33.7422 7.76965 33.7422 17.3399Z" fill="#502D17"/>
<path d="M16.3608 18.0231C19.5497 18.0231 22.1349 15.0797 22.1349 11.4488C22.1349 7.81793 19.5497 4.87451 16.3608 4.87451C13.1718 4.87451 10.5867 7.81793 10.5867 11.4488C10.5867 15.0797 13.1718 18.0231 16.3608 18.0231Z" fill="white"/>
<path d="M29.9848 24.5115C29.9848 28.9407 26.1227 32.5324 21.3599 32.5324C16.597 32.5324 12.7444 28.9502 12.7444 24.5115C12.7444 20.0728 16.6046 16.4868 21.3675 16.4868C26.1304 16.4868 29.9848 20.0785 29.9848 24.5115Z" fill="white"/>
<path d="M32.0243 11.44C32.0243 15.0717 29.4381 18.0143 26.2483 18.0143C23.0584 18.0143 20.4761 15.0793 20.4761 11.44C20.4761 7.8007 23.0603 4.86377 26.2483 4.86377C29.4362 4.86377 32.0243 7.82354 32.0243 11.44Z" fill="white"/>
<path d="M20.8856 13.6872C21.2053 13.5626 21.5606 13.5661 21.8778 13.6967C22.7933 14.0506 23.6053 14.6285 24.2393 15.3774C24.3381 15.501 24.396 15.6522 24.4048 15.8101C24.4137 15.9681 24.3732 16.1248 24.2888 16.2587C23.6316 17.278 22.7924 18.1677 21.8131 18.8835C21.6912 18.9759 21.5424 19.026 21.3894 19.026C21.2363 19.026 21.0875 18.9759 20.9656 18.8835C19.9854 18.1688 19.146 17.2788 18.4899 16.2587C18.4049 16.1267 18.3641 15.9711 18.3734 15.8144C18.3826 15.6577 18.4414 15.508 18.5413 15.3869C19.1547 14.619 19.9649 14.0316 20.8856 13.6872Z" fill="#FF7F2B"/>
<path d="M20.7847 20.4443C20.7847 20.7503 20.6631 21.0436 20.4467 21.26C20.2302 21.4763 19.9367 21.5978 19.6306 21.5978C19.3245 21.5978 19.031 21.4763 18.8146 21.26C18.5982 21.0436 18.4766 20.7503 18.4766 20.4443H20.7847Z" fill="#D6D6D6"/>
<path d="M24.2907 20.4443C24.2907 20.7503 24.1691 21.0436 23.9527 21.26C23.7362 21.4763 23.4427 21.5978 23.1366 21.5978C22.8305 21.5978 22.537 21.4763 22.3206 21.26C22.1041 21.0436 21.9825 20.7503 21.9825 20.4443H24.2907Z" fill="#D6D6D6"/>
<path d="M19.0288 22.7432C19.0288 23.0491 18.9072 23.3425 18.6908 23.5588C18.4744 23.7751 18.1808 23.8966 17.8748 23.8966C17.5687 23.8966 17.2751 23.7751 17.0587 23.5588C16.8423 23.3425 16.7207 23.0491 16.7207 22.7432H19.0288Z" fill="#D6D6D6"/>
<path d="M22.5403 22.7432C22.5403 23.0491 22.4187 23.3425 22.2023 23.5588C21.9859 23.7751 21.6923 23.8966 21.3862 23.8966C21.0802 23.8966 20.7866 23.7751 20.5702 23.5588C20.3538 23.3425 20.2322 23.0491 20.2322 22.7432H22.5403Z" fill="#D6D6D6"/>
<path d="M26.0446 22.7432C26.0446 23.0491 25.923 23.3425 25.7066 23.5588C25.4901 23.7751 25.1966 23.8966 24.8905 23.8966C24.5844 23.8966 24.2909 23.7751 24.0745 23.5588C23.858 23.3425 23.7365 23.0491 23.7365 22.7432H26.0446Z" fill="#D6D6D6"/>
<path d="M17.2805 24.9951C17.2805 25.301 17.1589 25.5944 16.9425 25.8107C16.7261 26.027 16.4325 26.1486 16.1265 26.1486C15.8204 26.1486 15.5269 26.027 15.3104 25.8107C15.094 25.5944 14.9724 25.301 14.9724 24.9951H17.2805Z" fill="#D6D6D6"/>
<path d="M20.7847 24.9951C20.7847 25.301 20.6631 25.5944 20.4467 25.8107C20.2302 26.027 19.9367 26.1486 19.6306 26.1486C19.3245 26.1486 19.031 26.027 18.8146 25.8107C18.5982 25.5944 18.4766 25.301 18.4766 24.9951H20.7847Z" fill="#D6D6D6"/>
<path d="M24.2907 24.9951C24.2907 25.301 24.1691 25.5944 23.9527 25.8107C23.7362 26.027 23.4427 26.1486 23.1366 26.1486C22.8305 26.1486 22.537 26.027 22.3206 25.8107C22.1041 25.5944 21.9825 25.301 21.9825 24.9951H24.2907Z" fill="#D6D6D6"/>
<path d="M27.8005 24.9951C27.7884 25.2932 27.6614 25.575 27.4461 25.7816C27.2308 25.9882 26.944 26.1036 26.6455 26.1036C26.347 26.1036 26.0601 25.9882 25.8449 25.7816C25.6296 25.575 25.5026 25.2932 25.4905 24.9951H27.8005Z" fill="#D6D6D6"/>
<path d="M19.0288 27.2949C19.0288 27.6008 18.9072 27.8942 18.6908 28.1105C18.4744 28.3269 18.1808 28.4484 17.8748 28.4484C17.5687 28.4484 17.2751 28.3269 17.0587 28.1105C16.8423 27.8942 16.7207 27.6008 16.7207 27.2949H19.0288Z" fill="#D6D6D6"/>
<path d="M22.5403 27.2949C22.5403 27.6008 22.4187 27.8942 22.2023 28.1105C21.9859 28.3269 21.6923 28.4484 21.3862 28.4484C21.0802 28.4484 20.7866 28.3269 20.5702 28.1105C20.3538 27.8942 20.2322 27.6008 20.2322 27.2949H22.5403Z" fill="#D6D6D6"/>
<path d="M26.0446 27.2949C26.0446 27.6008 25.923 27.8942 25.7066 28.1105C25.4901 28.3269 25.1966 28.4484 24.8905 28.4484C24.5844 28.4484 24.2909 28.3269 24.0745 28.1105C23.858 27.8942 23.7365 27.6008 23.7365 27.2949H26.0446Z" fill="#D6D6D6"/>
<path d="M20.7847 29.5449C20.7847 29.8508 20.6631 30.1442 20.4467 30.3605C20.2302 30.5769 19.9367 30.6984 19.6306 30.6984C19.3245 30.6984 19.031 30.5769 18.8146 30.3605C18.5982 30.1442 18.4766 29.8508 18.4766 29.5449H20.7847Z" fill="#D6D6D6"/>
<path d="M24.2907 29.5449C24.2907 29.8508 24.1691 30.1442 23.9527 30.3605C23.7362 30.5769 23.4427 30.6984 23.1366 30.6984C22.8305 30.6984 22.537 30.5769 22.3206 30.3605C22.1041 30.1442 21.9825 29.8508 21.9825 29.5449H24.2907Z" fill="#D6D6D6"/>
<path d="M17.115 14.0658C18.9703 14.0658 20.4743 12.5625 20.4743 10.7082C20.4743 8.85383 18.9703 7.35059 17.115 7.35059C15.2596 7.35059 13.7556 8.85383 13.7556 10.7082C13.7556 12.5625 15.2596 14.0658 17.115 14.0658Z" fill="#C2DDEB"/>
<path d="M17.1149 12.813C18.2761 12.813 19.2174 11.8722 19.2174 10.7117C19.2174 9.55115 18.2761 8.61035 17.1149 8.61035C15.9537 8.61035 15.0125 9.55115 15.0125 10.7117C15.0125 11.8722 15.9537 12.813 17.1149 12.813Z" fill="black"/>
<path d="M17.6463 10.7122C18.0765 10.7122 18.4252 10.3637 18.4252 9.93376C18.4252 9.50381 18.0765 9.15527 17.6463 9.15527C17.2162 9.15527 16.8674 9.50381 16.8674 9.93376C16.8674 10.3637 17.2162 10.7122 17.6463 10.7122Z" fill="white"/>
<path d="M25.3361 14.0715C27.1925 14.0715 28.6974 12.5674 28.6974 10.712C28.6974 8.85663 27.1925 7.35254 25.3361 7.35254C23.4797 7.35254 21.9749 8.85663 21.9749 10.712C21.9749 12.5674 23.4797 14.0715 25.3361 14.0715Z" fill="#C2DDEB"/>
<path d="M25.3362 12.813C26.4974 12.813 27.4387 11.8722 27.4387 10.7117C27.4387 9.55115 26.4974 8.61035 25.3362 8.61035C24.1751 8.61035 23.2338 9.55115 23.2338 10.7117C23.2338 11.8722 24.1751 12.813 25.3362 12.813Z" fill="black"/>
<path d="M25.8636 10.7122C26.2938 10.7122 26.6425 10.3637 26.6425 9.93376C26.6425 9.50381 26.2938 9.15527 25.8636 9.15527C25.4334 9.15527 25.0847 9.50381 25.0847 9.93376C25.0847 10.3637 25.4334 10.7122 25.8636 10.7122Z" fill="white"/>
<path d="M28.3317 34.6879C28.3317 35.5749 27.8422 36.2905 27.2405 36.2905C26.6387 36.2905 26.1492 35.5749 26.1492 34.6879C26.1492 35.5749 25.6598 36.2905 25.0561 36.2905C24.4524 36.2905 23.9649 35.5749 23.9649 34.6879C23.9649 35.5749 23.4774 36.2905 22.8737 36.2905C22.27 36.2905 21.7825 35.5749 21.7825 34.6879C21.7825 33.4374 23.2431 32.4229 25.0466 32.4229C26.8501 32.4229 28.3126 33.4374 28.3126 34.6879H28.3317Z" fill="#FF7F2B"/>
<path d="M20.8876 34.6879C20.8876 35.5749 20.3982 36.2905 19.7964 36.2905C19.1946 36.2905 18.7032 35.5749 18.7032 34.6879C18.7032 35.5749 18.2157 36.2905 17.612 36.2905C17.0083 36.2905 16.5208 35.5749 16.5208 34.6879C16.5208 35.5749 16.0314 36.2905 15.4296 36.2905C14.8278 36.2905 14.3384 35.5749 14.3384 34.6879C14.3384 33.4374 15.799 32.4229 17.6025 32.4229C19.406 32.4229 20.8685 33.4374 20.8685 34.6879H20.8876Z" fill="#FF7F2B"/>
<path d="M52.0024 29V13.184H53.1544L59.8264 24.344L61.6024 27.488H61.6984C61.6824 26.72 61.6504 25.952 61.6024 25.184C61.5704 24.416 61.5544 23.648 61.5544 22.88V13.184H62.6104V29H61.4584L54.7864 17.84L53.0104 14.696H52.9144C52.9464 15.448 52.9784 16.192 53.0104 16.928C53.0424 17.664 53.0584 18.416 53.0584 19.184V29H52.0024ZM65.4603 29V17.48H66.5163V29H65.4603ZM66.0123 14.696C65.7563 14.696 65.5403 14.608 65.3643 14.432C65.1883 14.256 65.1003 14.016 65.1003 13.712C65.1003 13.44 65.1883 13.216 65.3643 13.04C65.5403 12.864 65.7563 12.776 66.0123 12.776C66.2843 12.776 66.5003 12.864 66.6603 13.04C66.8363 13.216 66.9243 13.44 66.9243 13.712C66.9243 14.016 66.8363 14.256 66.6603 14.432C66.5003 14.608 66.2843 14.696 66.0123 14.696ZM73.0326 34.544C71.5766 34.544 70.4246 34.256 69.5766 33.68C68.7286 33.104 68.3046 32.328 68.3046 31.352C68.3046 30.84 68.4566 30.344 68.7606 29.864C69.0646 29.384 69.4806 28.952 70.0086 28.568V28.472C69.7206 28.296 69.4806 28.056 69.2886 27.752C69.0966 27.448 69.0006 27.072 69.0006 26.624C69.0006 26.112 69.1446 25.68 69.4326 25.328C69.7206 24.96 69.9926 24.688 70.2486 24.512V24.416C69.8966 24.096 69.5686 23.664 69.2646 23.12C68.9606 22.56 68.8086 21.936 68.8086 21.248C68.8086 20.448 68.9846 19.744 69.3366 19.136C69.7046 18.528 70.1926 18.056 70.8006 17.72C71.4246 17.368 72.1126 17.192 72.8646 17.192C73.1846 17.192 73.4726 17.224 73.7286 17.288C73.9846 17.336 74.2006 17.4 74.3766 17.48H78.2886V18.368H75.6006C75.9686 18.688 76.2726 19.104 76.5126 19.616C76.7526 20.112 76.8726 20.664 76.8726 21.272C76.8726 22.056 76.6966 22.752 76.3446 23.36C75.9926 23.968 75.5126 24.448 74.9046 24.8C74.2966 25.152 73.6166 25.328 72.8646 25.328C72.5446 25.328 72.2086 25.288 71.8566 25.208C71.5206 25.128 71.2166 25.008 70.9446 24.848C70.6886 25.056 70.4646 25.288 70.2726 25.544C70.0966 25.8 70.0086 26.12 70.0086 26.504C70.0086 26.92 70.1606 27.28 70.4646 27.584C70.7686 27.872 71.3526 28.016 72.2166 28.016H74.6886C75.9846 28.016 76.9366 28.232 77.5446 28.664C78.1686 29.08 78.4806 29.744 78.4806 30.656C78.4806 31.312 78.2566 31.936 77.8086 32.528C77.3606 33.136 76.7286 33.624 75.9126 33.992C75.0966 34.36 74.1366 34.544 73.0326 34.544ZM72.8646 24.488C73.3926 24.488 73.8806 24.352 74.3286 24.08C74.7926 23.808 75.1606 23.432 75.4326 22.952C75.7046 22.456 75.8406 21.888 75.8406 21.248C75.8406 20.272 75.5446 19.496 74.9526 18.92C74.3766 18.344 73.6806 18.056 72.8646 18.056C72.0486 18.056 71.3446 18.344 70.7526 18.92C70.1606 19.48 69.8646 20.256 69.8646 21.248C69.8646 21.888 70.0006 22.456 70.2726 22.952C70.5606 23.432 70.9286 23.808 71.3766 24.08C71.8406 24.352 72.3366 24.488 72.8646 24.488ZM73.1526 33.68C74.0166 33.68 74.7606 33.536 75.3846 33.248C76.0246 32.96 76.5206 32.592 76.8726 32.144C77.2246 31.712 77.4006 31.256 77.4006 30.776C77.4006 30.136 77.1686 29.68 76.7046 29.408C76.2566 29.152 75.6006 29.024 74.7366 29.024H72.2646C72.1526 29.024 71.9606 29.008 71.6886 28.976C71.4166 28.944 71.1286 28.896 70.8246 28.832C70.2966 29.184 69.9126 29.568 69.6726 29.984C69.4326 30.416 69.3126 30.84 69.3126 31.256C69.3126 31.976 69.6486 32.56 70.3206 33.008C70.9926 33.456 71.9366 33.68 73.1526 33.68ZM79.2799 29V11.744H80.3359V19.28C80.9439 18.672 81.5599 18.176 82.1839 17.792C82.8239 17.392 83.5359 17.192 84.3199 17.192C85.5039 17.192 86.3759 17.56 86.9359 18.296C87.5119 19.016 87.7999 20.12 87.7999 21.608V29H86.7439V21.752C86.7439 20.52 86.5359 19.616 86.1199 19.04C85.7199 18.448 85.0479 18.152 84.1039 18.152C83.4159 18.152 82.7919 18.336 82.2319 18.704C81.6719 19.056 81.0399 19.592 80.3359 20.312V29H79.2799ZM93.4236 29.288C92.3036 29.288 91.5436 28.968 91.1436 28.328C90.7436 27.672 90.5436 26.832 90.5436 25.808V18.392H88.7436V17.576L90.5676 17.48L90.7116 14.144H91.6236V17.48H94.9596V18.392H91.6236V25.904C91.6236 26.64 91.7516 27.232 92.0076 27.68C92.2636 28.128 92.7836 28.352 93.5676 28.352C93.7916 28.352 94.0316 28.32 94.2876 28.256C94.5596 28.176 94.7996 28.088 95.0076 27.992L95.2956 28.856C94.9596 28.968 94.6156 29.064 94.2636 29.144C93.9276 29.24 93.6476 29.288 93.4236 29.288ZM97.8522 29L94.4442 17.48H95.5962L97.6602 24.944C97.8042 25.472 97.9402 25.992 98.0682 26.504C98.2122 27 98.3402 27.504 98.4522 28.016H98.5482C98.6762 27.504 98.8122 27 98.9562 26.504C99.1002 25.992 99.2442 25.472 99.3882 24.944L101.476 17.48H102.748L104.836 24.944C104.98 25.472 105.124 25.992 105.268 26.504C105.412 27 105.556 27.504 105.7 28.016H105.796C105.924 27.504 106.06 27 106.204 26.504C106.348 25.992 106.484 25.472 106.612 24.944L108.652 17.48H109.732L106.42 29H105.028L103.012 21.848C102.852 21.288 102.708 20.744 102.58 20.216C102.452 19.672 102.3 19.12 102.124 18.56H102.028C101.9 19.12 101.756 19.68 101.596 20.24C101.452 20.784 101.292 21.336 101.116 21.896L99.1242 29H97.8522ZM113.112 29.288C112.2 29.288 111.416 29.032 110.76 28.52C110.104 28.008 109.776 27.208 109.776 26.12C109.776 24.84 110.376 23.872 111.576 23.216C112.776 22.544 114.656 22.064 117.216 21.776C117.232 21.184 117.168 20.616 117.024 20.072C116.88 19.512 116.608 19.048 116.208 18.68C115.824 18.312 115.248 18.128 114.48 18.128C113.712 18.128 113.008 18.28 112.368 18.584C111.728 18.888 111.208 19.184 110.808 19.472L110.328 18.68C110.6 18.488 110.952 18.28 111.384 18.056C111.816 17.816 112.304 17.616 112.848 17.456C113.408 17.28 114 17.192 114.624 17.192C115.536 17.192 116.256 17.392 116.784 17.792C117.312 18.192 117.688 18.728 117.912 19.4C118.152 20.056 118.272 20.8 118.272 21.632V29H117.36L117.264 27.512H117.192C116.6 27.976 115.96 28.392 115.272 28.76C114.584 29.112 113.864 29.288 113.112 29.288ZM113.304 28.376C113.96 28.376 114.592 28.216 115.2 27.896C115.824 27.576 116.496 27.112 117.216 26.504V22.592C115.632 22.784 114.376 23.032 113.448 23.336C112.52 23.64 111.856 24.024 111.456 24.488C111.056 24.936 110.856 25.464 110.856 26.072C110.856 26.904 111.096 27.496 111.576 27.848C112.072 28.2 112.648 28.376 113.304 28.376ZM123.587 29.288C122.467 29.288 121.707 28.968 121.307 28.328C120.907 27.672 120.707 26.832 120.707 25.808V18.392H118.907V17.576L120.731 17.48L120.875 14.144H121.787V17.48H125.123V18.392H121.787V25.904C121.787 26.64 121.915 27.232 122.171 27.68C122.427 28.128 122.947 28.352 123.731 28.352C123.955 28.352 124.195 28.32 124.451 28.256C124.723 28.176 124.963 28.088 125.171 27.992L125.459 28.856C125.123 28.968 124.779 29.064 124.427 29.144C124.091 29.24 123.811 29.288 123.587 29.288ZM130.253 29.288C129.261 29.288 128.365 29.056 127.565 28.592C126.781 28.112 126.157 27.424 125.693 26.528C125.245 25.616 125.021 24.528 125.021 23.264C125.021 21.968 125.261 20.872 125.741 19.976C126.237 19.064 126.885 18.376 127.685 17.912C128.485 17.432 129.349 17.192 130.277 17.192C131.077 17.192 131.741 17.336 132.269 17.624C132.797 17.912 133.261 18.24 133.661 18.608L133.037 19.352C132.669 19 132.261 18.712 131.813 18.488C131.365 18.248 130.861 18.128 130.301 18.128C129.517 18.128 128.805 18.344 128.165 18.776C127.541 19.208 127.045 19.808 126.677 20.576C126.309 21.344 126.125 22.24 126.125 23.264C126.125 24.272 126.293 25.16 126.629 25.928C126.981 26.68 127.469 27.272 128.093 27.704C128.733 28.136 129.469 28.352 130.301 28.352C130.909 28.352 131.469 28.224 131.981 27.968C132.509 27.696 132.973 27.384 133.373 27.032L133.925 27.776C133.429 28.208 132.877 28.568 132.269 28.856C131.661 29.144 130.989 29.288 130.253 29.288ZM135.083 29V11.744H136.139V19.28C136.747 18.672 137.363 18.176 137.987 17.792C138.627 17.392 139.339 17.192 140.123 17.192C141.307 17.192 142.179 17.56 142.739 18.296C143.315 19.016 143.603 20.12 143.603 21.608V29H142.547V21.752C142.547 20.52 142.339 19.616 141.923 19.04C141.523 18.448 140.851 18.152 139.907 18.152C139.219 18.152 138.595 18.336 138.035 18.704C137.475 19.056 136.843 19.592 136.139 20.312V29H135.083ZM146.514 29.288C146.258 29.288 146.018 29.192 145.794 29C145.586 28.808 145.482 28.544 145.482 28.208C145.482 27.856 145.586 27.584 145.794 27.392C146.018 27.2 146.258 27.104 146.514 27.104C146.786 27.104 147.018 27.2 147.21 27.392C147.418 27.584 147.522 27.856 147.522 28.208C147.522 28.544 147.418 28.808 147.21 29C147.018 29.192 146.786 29.288 146.514 29.288ZM148.609 34.496C148.337 34.496 148.065 34.464 147.793 34.4C147.521 34.336 147.297 34.272 147.121 34.208L147.385 33.344C147.529 33.392 147.705 33.44 147.913 33.488C148.137 33.552 148.361 33.584 148.585 33.584C149.241 33.584 149.657 33.344 149.833 32.864C150.025 32.4 150.121 31.8 150.121 31.064V17.48H151.201V31.136C151.201 33.376 150.337 34.496 148.609 34.496ZM150.649 14.696C150.393 14.696 150.177 14.608 150.001 14.432C149.825 14.256 149.737 14.016 149.737 13.712C149.737 13.44 149.825 13.216 150.001 13.04C150.177 12.864 150.393 12.776 150.649 12.776C150.921 12.776 151.137 12.864 151.297 13.04C151.473 13.216 151.561 13.44 151.561 13.712C151.561 14.016 151.473 14.256 151.297 14.432C151.137 14.608 150.921 14.696 150.649 14.696ZM156.71 29.288C155.862 29.288 155.07 29.136 154.334 28.832C153.614 28.512 152.998 28.136 152.486 27.704L153.11 26.912C153.606 27.312 154.134 27.656 154.694 27.944C155.254 28.232 155.95 28.376 156.782 28.376C157.678 28.376 158.358 28.152 158.822 27.704C159.286 27.24 159.518 26.704 159.518 26.096C159.518 25.616 159.374 25.216 159.086 24.896C158.798 24.576 158.438 24.312 158.006 24.104C157.59 23.896 157.158 23.712 156.71 23.552C156.134 23.344 155.566 23.112 155.006 22.856C154.462 22.6 154.014 22.272 153.662 21.872C153.31 21.456 153.134 20.92 153.134 20.264C153.134 19.416 153.446 18.696 154.07 18.104C154.71 17.496 155.63 17.192 156.83 17.192C157.454 17.192 158.054 17.304 158.63 17.528C159.222 17.752 159.726 18.04 160.142 18.392L159.566 19.136C159.166 18.848 158.75 18.608 158.318 18.416C157.886 18.208 157.382 18.104 156.806 18.104C155.91 18.104 155.246 18.32 154.814 18.752C154.398 19.184 154.19 19.664 154.19 20.192C154.19 20.624 154.31 20.984 154.55 21.272C154.806 21.56 155.134 21.8 155.534 21.992C155.95 22.168 156.382 22.344 156.83 22.52C157.438 22.744 158.03 22.984 158.606 23.24C159.182 23.496 159.654 23.84 160.022 24.272C160.406 24.704 160.598 25.296 160.598 26.048C160.598 26.624 160.446 27.16 160.142 27.656C159.838 28.136 159.398 28.528 158.822 28.832C158.246 29.136 157.542 29.288 156.71 29.288Z" fill="white"/>
</svg>
