<svg width="70" height="26" viewBox="0 0 70 26" fill="none" xmlns="http://www.w3.org/2000/svg">
<path d="M2.48477 24.8307C2.34997 24.9654 2.13147 24.9654 1.9967 24.8306C1.86194 24.6958 1.86191 24.4773 1.99665 24.3425L3.08838 23.2503C3.82618 22.5122 3.82596 21.3158 3.0879 20.5779L0.267848 17.7586C0.132494 17.6233 0.132747 17.4038 0.268412 17.2688C0.403586 17.1343 0.622126 17.1345 0.756987 17.2693L3.8214 20.333C4.69462 21.206 4.69457 22.6217 3.82129 23.4946L2.48477 24.8307Z" fill="white"/>
<path d="M23.2812 21.5674H5.25691C5.06581 21.5674 4.91089 21.7223 4.91089 21.9134C4.91089 22.1045 5.06581 22.2594 5.25691 22.2594H23.2812C23.4723 22.2594 23.6272 22.1045 23.6272 21.9134C23.6272 21.7223 23.4723 21.5674 23.2812 21.5674Z" fill="white"/>
<path d="M6.49205 0.47079C6.48426 0.401207 6.4944 0.330786 6.5215 0.266226C6.5486 0.201666 6.59177 0.145112 6.6469 0.101943C6.70202 0.0587736 6.76728 0.030424 6.83645 0.0195909C6.90563 0.00875783 6.97643 0.015801 7.04211 0.0400505L8.69082 0.647868C9.72504 1.02915 10.0048 2.36054 9.21158 3.12587C8.31928 3.98677 6.82716 3.44946 6.68854 2.21734L6.49205 0.47079Z" fill="#502D17"/>
<path d="M20.2267 0.470928C20.2348 0.4014 20.2248 0.330971 20.1979 0.266373C20.171 0.201774 20.1279 0.145165 20.0728 0.101955C20.0178 0.0587442 19.9526 0.0303766 19.8834 0.0195628C19.8143 0.00874904 19.7435 0.01585 19.6779 0.0401881L18.0286 0.648025C16.9942 1.02925 16.7144 2.36086 17.5079 3.12616C18.4003 3.98693 19.8924 3.44931 20.0307 2.21713L20.2267 0.470928Z" fill="#502D17"/>
<path d="M13.4053 21.1195C18.5836 21.1195 22.7814 17.5163 22.7814 13.0715C22.7814 8.62666 18.5836 5.02344 13.4053 5.02344C8.2271 5.02344 4.0293 8.62666 4.0293 13.0715C4.0293 17.5163 8.2271 21.1195 13.4053 21.1195Z" fill="#794422"/>
<path d="M21.1635 10.8699C21.1635 16.8716 17.6901 21.7374 13.4078 21.7374C9.12546 21.7374 5.6521 16.8716 5.6521 10.8699C5.6521 4.8682 9.12546 0 13.4078 0C17.6901 0 21.1635 4.87058 21.1635 10.8699Z" fill="#502D17"/>
<path d="M10.2733 11.2982C12.2713 11.2982 13.891 9.45304 13.891 7.17693C13.891 4.90082 12.2713 3.05566 10.2733 3.05566C8.27523 3.05566 6.65552 4.90082 6.65552 7.17693C6.65552 9.45304 8.27523 11.2982 10.2733 11.2982Z" fill="white"/>
<path d="M18.8091 15.3654C18.8091 18.142 16.3893 20.3935 13.4052 20.3935C10.421 20.3935 8.0072 18.1479 8.0072 15.3654C8.0072 12.5829 10.4258 10.335 13.4099 10.335C16.3941 10.335 18.8091 12.5865 18.8091 15.3654Z" fill="white"/>
<path d="M20.0872 7.17128C20.0872 9.44788 18.4668 11.2925 16.4682 11.2925C14.4696 11.2925 12.8517 9.45265 12.8517 7.17128C12.8517 4.88991 14.4708 3.04883 16.4682 3.04883C18.4656 3.04883 20.0872 4.90423 20.0872 7.17128Z" fill="white"/>
<path d="Mnan nanL13.1082 8.57951C13.3085 8.50143 13.5311 8.50357 13.7298 8.58548C14.3034 8.8073 14.8122 9.16956 15.2094 9.63906C15.2713 9.71651 15.3076 9.81132 15.3131 9.91033C15.3187 10.0093 15.2933 10.1076 15.2404 10.1915C14.8287 10.8305 14.3029 11.3882 13.6893 11.8369C13.6129 11.8949 13.5197 11.9263 13.4238 11.9263C13.3279 11.9263 13.2347 11.8949 13.1583 11.8369C12.5441 11.3889 12.0182 10.831 11.6072 10.1915C11.5539 10.1088 11.5283 10.0112 11.5341 9.91301C11.5399 9.81478 11.5768 9.72094 11.6394 9.64502C12.0237 9.16363 12.5313 8.7954 13.1082 8.57951Lnan nanZ" fill="#FF7F2B"/>
<path d="M12.4771 12.8154C12.7908 12.8154 13.055 13.1049 12.8332 13.3267C12.6976 13.4623 12.5137 13.5385 12.3219 13.5385C12.1302 13.5385 11.9463 13.4623 11.8107 13.3267C11.5889 13.1049 11.8531 12.8154 12.1668 12.8154H12.4771Z" fill="#DDDDDD"/>
<path d="M14.6737 12.8154C14.9873 12.8154 15.2515 13.1049 15.0298 13.3267C14.8942 13.4623 14.7103 13.5385 14.5185 13.5385C14.3267 13.5385 14.1428 13.4623 14.0072 13.3267C13.7854 13.1049 14.0497 12.8154 14.3633 12.8154H14.6737Z" fill="#DDDDDD"/>
<path d="M11.3769 14.2568C11.6905 14.2568 11.9548 14.5464 11.733 14.7681C11.5974 14.9037 11.4135 14.9799 11.2217 14.9799C11.03 14.9799 10.846 14.9037 10.7104 14.7681C10.4887 14.5464 10.7529 14.2568 11.0665 14.2568H11.3769Z" fill="#DDDDDD"/>
<path d="M13.5771 14.2568C13.8907 14.2568 14.155 14.5464 13.9332 14.7681C13.7976 14.9037 13.6137 14.9799 13.4219 14.9799C13.2302 14.9799 13.0462 14.9037 12.9106 14.7681C12.6889 14.5464 12.9531 14.2568 13.2667 14.2568H13.5771Z" fill="#DDDDDD"/>
<path d="M15.7727 14.2568C16.0863 14.2568 16.3505 14.5464 16.1288 14.7681C15.9932 14.9037 15.8092 14.9799 15.6175 14.9799C15.4257 14.9799 15.2418 14.9037 15.1062 14.7681C14.8844 14.5464 15.1487 14.2568 15.4623 14.2568H15.7727Z" fill="#DDDDDD"/>
<path d="M10.2815 15.6689C10.5951 15.6689 10.8593 15.9585 10.6376 16.1802C10.502 16.3158 10.318 16.392 10.1263 16.392C9.9345 16.392 9.75058 16.3158 9.61498 16.1802C9.39321 15.9585 9.65745 15.6689 9.97108 15.6689H10.2815Z" fill="#DDDDDD"/>
<path d="M12.4771 15.6689C12.7908 15.6689 13.055 15.9585 12.8332 16.1802C12.6976 16.3158 12.5137 16.392 12.3219 16.392C12.1302 16.392 11.9463 16.3158 11.8107 16.1802C11.5889 15.9585 11.8531 15.6689 12.1668 15.6689H12.4771Z" fill="#DDDDDD"/>
<path d="M14.6737 15.6689C14.9873 15.6689 15.2515 15.9585 15.0298 16.1802C14.8942 16.3158 14.7103 16.392 14.5185 16.392C14.3267 16.392 14.1428 16.3158 14.0072 16.1802C13.7854 15.9585 14.0497 15.6689 14.3633 15.6689H14.6737Z" fill="#DDDDDD"/>
<path d="M16.8867 15.6689C17.1891 15.6689 17.4369 15.9526 17.2188 16.162C17.0839 16.2915 16.9042 16.3638 16.7172 16.3638C16.5302 16.3638 16.3504 16.2915 16.2156 16.162C15.9975 15.9526 16.2453 15.6689 16.5477 15.6689H16.8867Z" fill="#DDDDDD"/>
<path d="M11.3769 17.1104C11.6905 17.1104 11.9548 17.3999 11.733 17.6216C11.5974 17.7572 11.4135 17.8334 11.2217 17.8334C11.03 17.8334 10.846 17.7572 10.7104 17.6216C10.4887 17.3999 10.7529 17.1104 11.0665 17.1104H11.3769Z" fill="#DDDDDD"/>
<path d="M13.5771 17.1104C13.8907 17.1104 14.155 17.3999 13.9332 17.6216C13.7976 17.7572 13.6137 17.8334 13.4219 17.8334C13.2302 17.8334 13.0462 17.7572 12.9106 17.6216C12.6889 17.3999 12.9531 17.1104 13.2667 17.1104H13.5771Z" fill="#DDDDDD"/>
<path d="M15.7727 17.1104C16.0863 17.1104 16.3505 17.3999 16.1288 17.6216C15.9932 17.7572 15.8092 17.8334 15.6175 17.8334C15.4257 17.8334 15.2418 17.7572 15.1062 17.6216C14.8844 17.3999 15.1487 17.1104 15.4623 17.1104H15.7727Z" fill="#DDDDDD"/>
<path d="M12.4771 18.5205C12.7908 18.5205 13.055 18.81 12.8332 19.0318C12.6976 19.1674 12.5137 19.2436 12.3219 19.2436C12.1302 19.2436 11.9463 19.1674 11.8107 19.0318C11.5889 18.81 11.8531 18.5205 12.1668 18.5205H12.4771Z" fill="#DDDDDD"/>
<path d="M14.6737 18.5205C14.9873 18.5205 15.2515 18.81 15.0298 19.0318C14.8942 19.1674 14.7103 19.2436 14.5185 19.2436C14.3267 19.2436 14.1428 19.1674 14.0072 19.0318C13.7854 18.81 14.0497 18.5205 14.3633 18.5205H14.6737Z" fill="#DDDDDD"/>
<path d="M10.7458 8.81698C11.9082 8.81698 12.8505 7.87464 12.8505 6.7122C12.8505 5.54976 11.9082 4.60742 10.7458 4.60742C9.58333 4.60742 8.64099 5.54976 8.64099 6.7122C8.64099 7.87464 9.58333 8.81698 10.7458 8.81698Z" fill="#CED8E1"/>
<path d="M10.7456 8.03201C11.4731 8.03201 12.0629 7.44225 12.0629 6.71474C12.0629 5.98722 11.4731 5.39746 10.7456 5.39746C10.0181 5.39746 9.42834 5.98722 9.42834 6.71474C9.42834 7.44225 10.0181 8.03201 10.7456 8.03201Z" fill="#333333"/>
<path d="M11.0787 6.71528C11.3482 6.71528 11.5667 6.49679 11.5667 6.22727C11.5667 5.95775 11.3482 5.73926 11.0787 5.73926C10.8092 5.73926 10.5907 5.95775 10.5907 6.22727C10.5907 6.49679 10.8092 6.71528 11.0787 6.71528Z" fill="white"/>
<path d="M15.8967 8.82132C17.0598 8.82132 18.0027 7.87844 18.0027 6.71535C18.0027 5.55225 17.0598 4.60938 15.8967 4.60938C14.7336 4.60938 13.7908 5.55225 13.7908 6.71535C13.7908 7.87844 14.7336 8.82132 15.8967 8.82132Z" fill="#CED8E1"/>
<path d="M15.8966 8.03201C16.6241 8.03201 17.2139 7.44225 17.2139 6.71474C17.2139 5.98722 16.6241 5.39746 15.8966 5.39746C15.1691 5.39746 14.5793 5.98722 14.5793 6.71474C14.5793 7.44225 15.1691 8.03201 15.8966 8.03201Z" fill="#333333"/>
<path d="M16.2271 6.71528C16.4967 6.71528 16.7152 6.49679 16.7152 6.22727C16.7152 5.95775 16.4967 5.73926 16.2271 5.73926C15.9576 5.73926 15.7391 5.95775 15.7391 6.22727C15.7391 6.49679 15.9576 6.71528 16.2271 6.71528Z" fill="white"/>
<path d="M17.7676 21.7451C17.7709 21.7451 17.7735 21.7478 17.7735 21.7511C17.7713 22.3043 17.4655 22.7497 17.0898 22.7497C16.7128 22.7497 16.4061 22.3011 16.4061 21.7451C16.4061 22.3011 16.0995 22.7497 15.7213 22.7497C15.343 22.7497 15.0376 22.3011 15.0376 21.7451C15.0376 22.3011 14.7321 22.7497 14.3539 22.7497C13.9756 22.7497 13.6702 22.3011 13.6702 21.7451C13.6702 20.9612 14.5853 20.3252 15.7153 20.3252C16.8424 20.3252 17.7569 20.9579 17.7616 21.7391C17.7616 21.7424 17.7643 21.7451 17.7676 21.7451Z" fill="#FF7F2B"/>
<path d="M13.1036 21.7451C13.1069 21.7451 13.1096 21.7478 13.1096 21.7511C13.1074 22.3043 12.8016 22.7497 12.4259 22.7497C12.0488 22.7497 11.741 22.3011 11.741 21.7451C11.741 22.3011 11.4356 22.7497 11.0573 22.7497C10.6791 22.7497 10.3736 22.3011 10.3736 21.7451C10.3736 22.3011 10.067 22.7497 9.68992 22.7497C9.31288 22.7497 9.00623 22.3011 9.00623 21.7451C9.00623 20.9612 9.9214 20.3252 11.0513 20.3252C12.1784 20.3252 13.093 20.9579 13.0976 21.7391C13.0977 21.7424 13.1003 21.7451 13.1036 21.7451Z" fill="#FF7F2B"/>
<line x1="36.1273" y1="2.53711" x2="36.1273" y2="22.5371" stroke="#787878"/>
<g clip-path="url(#clip0_301_29005)">
<path fill-rule="evenodd" clip-rule="evenodd" d="M69.9774 12.5373C69.9774 18.7093 64.9743 23.7124 58.8024 23.7124C52.6306 23.7124 47.6273 18.7093 47.6273 12.5373C47.6273 6.36558 52.6306 1.3623 58.8024 1.3623C64.9743 1.3623 69.9774 6.36558 69.9774 12.5373Z" fill="#ECB360"/>
<path fill-rule="evenodd" clip-rule="evenodd" d="M66.9973 11.4198C66.9973 16.9744 62.661 21.4774 57.3124 21.4774C51.9635 21.4774 47.6273 16.9744 47.6273 11.4198C47.6273 5.86525 51.9635 1.3623 57.3124 1.3623C62.661 1.3623 66.9973 5.86525 66.9973 11.4198Z" fill="#D76835"/>
<path fill-rule="evenodd" clip-rule="evenodd" d="M67.7422 10.3022C67.7422 15.2398 63.9064 19.2424 59.1744 19.2424C54.443 19.2424 50.6072 15.2398 50.6072 10.3022C50.6072 5.36492 54.443 1.3623 59.1744 1.3623C63.9064 1.3623 67.7422 5.36492 67.7422 10.3022Z" fill="#D33A41"/>
<path fill-rule="evenodd" clip-rule="evenodd" d="M66.9975 11.0477C66.9975 15.5734 63.4951 19.2426 59.1748 19.2426C54.8546 19.2426 51.3524 15.5734 51.3524 11.0477C51.3524 6.52148 54.8546 2.85254 59.1748 2.85254C63.4951 2.85254 66.9975 6.52148 66.9975 11.0477Z" fill="#B6CB46"/>
<path fill-rule="evenodd" clip-rule="evenodd" d="M66.2524 11.7927C66.2524 15.9072 62.9169 19.2428 58.8023 19.2428C54.688 19.2428 51.3524 15.9072 51.3524 11.7927C51.3524 7.67814 54.688 4.34277 58.8023 4.34277C62.9169 4.34277 66.2524 7.67814 66.2524 11.7927Z" fill="#66AD4A"/>
<path fill-rule="evenodd" clip-rule="evenodd" d="M63.2724 10.3028C63.2724 13.5944 60.6041 16.2628 57.3124 16.2628C54.0206 16.2628 51.3524 13.5944 51.3524 10.3028C51.3524 7.01116 54.0206 4.34277 57.3124 4.34277C60.6041 4.34277 63.2724 7.01116 63.2724 10.3028Z" fill="#AED7DC"/>
<path fill-rule="evenodd" clip-rule="evenodd" d="M64.0175 9.5578C64.0175 12.4379 61.6828 14.7728 58.8024 14.7728C55.9221 14.7728 53.5875 12.4379 53.5875 9.5578C53.5875 6.6775 55.9221 4.34277 58.8024 4.34277C61.6828 4.34277 64.0175 6.6775 64.0175 9.5578Z" fill="#5BB1CF"/>
<path fill-rule="evenodd" clip-rule="evenodd" d="M64.0173 9.92931C64.0173 12.6038 62.0161 14.7719 59.5473 14.7719C57.0785 14.7719 55.0773 12.6038 55.0773 9.92931C55.0773 7.2551 57.0785 5.08691 59.5473 5.08691C62.0161 5.08691 64.0173 7.2551 64.0173 9.92931Z" fill="#25A8C3"/>
<path fill-rule="evenodd" clip-rule="evenodd" d="M58.8022 14.7722C56.7451 14.7722 55.0773 12.9376 55.0773 10.6746C55.0773 8.41153 56.7451 6.57715 58.8022 6.57715C60.8595 6.57715 62.5273 8.41153 62.5273 10.6746C62.5273 12.9376 60.8595 14.7722 58.8022 14.7722Z" fill="#1B1A18"/>
<path fill-rule="evenodd" clip-rule="evenodd" d="M60.8349 9.49338C60.4805 10.0862 59.7838 10.4291 59.2784 10.2587C58.773 10.0885 58.6507 9.46959 59.0048 8.87653C59.3592 8.28349 60.056 7.94083 60.5613 8.11103C61.0667 8.28124 61.189 8.90013 60.8349 9.49338Z" fill="white"/>
</g>
<defs>
<clipPath id="clip0_301_29005">
<rect x="47.6273" y="1.3623" width="22.3501" height="22.3501" rx="4" fill="white"/>
</clipPath>
</defs>
</svg>
