<?xml version="1.0" encoding="UTF-8" standalone="no"?><!DOCTYPE svg PUBLIC "-//W3C//DTD SVG 1.1//EN" "http://www.w3.org/Graphics/SVG/1.1/DTD/svg11.dtd"><svg width="100%" height="100%" viewBox="0 0 30 800" version="1.1" xmlns="http://www.w3.org/2000/svg" xmlns:xlink="http://www.w3.org/1999/xlink" xml:space="preserve" xmlns:serif="http://www.serif.com/" style="fill-rule:evenodd;clip-rule:evenodd;stroke-linejoin:round;stroke-miterlimit:1.41421;"><rect id="Arrows" x="0" y="0" width="30" height="800" style="fill:none;"/><path d="M24,1.451l-10,10.04l-10,-10.04l1.446,-1.451l8.554,8.588l8.554,-8.588c0.482,0.484 0.964,0.968 1.446,1.451Z" style="fill:#b1b1b1;"/><path d="M22.531,403.53l-10.531,-10.579l-10.531,10.579l-1.469,-1.476l12,-12.054l12,12.054c-0.49,0.492 -0.979,0.984 -1.469,1.476Z" style="fill:#b1b1b1;"/><path d="M1.469,290l10.531,10.579l10.531,-10.579l1.469,1.476l-12,12.054l-12,-12.054c0.49,-0.492 0.979,-0.984 1.469,-1.476Z" style="fill:#b1b1b1;"/><path d="M1.469,340l10.531,10.579l10.531,-10.579l1.469,1.476l-12,12.054l-12,-12.054c0.49,-0.492 0.979,-0.984 1.469,-1.476Z" style="fill:#333;"/><path d="M24,51.451l-10,10.04l-10,-10.04l1.446,-1.451l8.554,8.588l8.554,-8.588c0.482,0.484 0.964,0.968 1.446,1.451Z" style="fill:#333;"/><path d="M15.446,110l-10,10l-1.446,-1.446l8.554,-8.554l-8.554,-8.554l1.446,-1.446c3.333,3.333 6.666,6.667 10,10Z" style="fill:#b1b1b1;"/><path d="M15.446,170l-10,10l-1.446,-1.446l8.554,-8.554l-8.554,-8.554l1.446,-1.446c3.333,3.333 6.666,6.667 10,10Z" style="fill:#333;"/><path d="M4,230l10,10l1.446,-1.446l-8.555,-8.554l8.555,-8.554l-1.446,-1.446c-3.333,3.333 -6.667,6.667 -10,10Z" style="fill:#fff;"/><path d="M29.446,660l-10,10l-1.446,-1.446l8.554,-8.554l-8.554,-8.554l1.446,-1.446c3.333,3.333 6.666,6.667 10,10Z" style="fill:#fff;"/><path d="M22.531,463.53l-10.531,-10.579l-10.531,10.579l-1.469,-1.476l12,-12.054l12,12.054c-0.49,0.492 -0.979,0.984 -1.469,1.476Z" style="fill:#333;"/><path d="M13.853,595.763l10.439,-10.439c0.472,0.472 0.943,0.943 1.415,1.415l-12.854,12.853l-12.853,-12.853l1.414,-1.415l10.439,10.439l0,-22.233l2,0l0,22.233Z" style="fill:#fff;fill-rule:nonzero;"/></svg>