<?xml version="1.0" encoding="UTF-8"?>
<!-- Generator: Adobe Illustrator 16.0.0, SVG Export Plug-In . SVG Version: 6.00 Build 0)  -->
<!DOCTYPE svg PUBLIC "-//W3C//DTD SVG 1.1//EN" "http://www.w3.org/Graphics/SVG/1.1/DTD/svg11.dtd">
<svg version="1.1" id="Layer_1" xmlns="http://www.w3.org/2000/svg" xmlns:xlink="http://www.w3.org/1999/xlink" x="0px" y="0px" width="135.505px" height="143.92px" viewBox="0 0 135.505 143.92" enable-background="new 0 0 135.505 143.92" xml:space="preserve">
<g>
	<g>
		<polygon fill="#FFFFFF" points="12.73,143.919 9.923,141.114 25.26,125.779 0,100.519 2.807,97.712 30.873,125.779   "/>
		<rect x="28.066" y="123.794" fill="#FFFFFF" width="107.438" height="3.969"/>
	</g>
	<g>
		<path fill="#502D17" d="M37.136,2.677c-0.193-1.742,1.509-3.077,3.152-2.472l22.301,8.209l-22.382,21.59L37.136,2.677z"/>
		<path fill="#502D17" d="M115.984,2.677c0.195-1.742-1.508-3.077-3.148-2.472L90.531,8.414l22.387,21.59L115.984,2.677z"/>
		<ellipse fill="#794422" cx="76.822" cy="75.013" rx="53.819" ry="46.2"/>
		<path fill="#502D17" d="M121.354,62.395c0,34.456-19.938,62.39-44.533,62.39c-24.594,0-44.531-27.934-44.531-62.39    C32.29,27.934,52.227,0,76.82,0C101.416,0,121.354,27.934,121.354,62.395z"/>
		<ellipse fill="#FFFFFF" cx="58.842" cy="41.165" rx="20.767" ry="23.658"/>
		<path fill="#FFFFFF" d="M107.838,88.176c0,15.942-13.887,28.868-31.018,28.868c-17.13,0-31.016-12.926-31.016-28.868    c0-15.947,13.886-28.873,31.016-28.873C93.951,59.304,107.838,72.229,107.838,88.176z"/>
		<path fill="#FFFFFF" d="M115.172,41.165c0,13.066-9.297,23.658-20.769,23.658c-11.466,0-20.765-10.591-20.765-23.658    c0-13.068,9.299-23.661,20.765-23.661C105.875,17.503,115.172,28.097,115.172,41.165z"/>
		<path fill="#FF7F2B" d="M75.116,49.227c1.146-0.452,2.43-0.438,3.565,0.037c3.621,1.506,6.213,3.356,8.491,6.046    c0.755,0.893,0.8,2.18,0.179,3.169c-2.373,3.782-5.249,6.625-8.916,9.444c-0.897,0.689-2.154,0.689-3.051,0    c-3.667-2.818-6.543-5.662-8.917-9.444c-0.616-0.98-0.562-2.253,0.185-3.137C69.018,52.547,71.327,50.718,75.116,49.227z"/>
		<g>
			<path fill="#D6D6D6" d="M74.759,73.539c0,2.293-1.857,4.152-4.149,4.152c-2.295,0-4.153-1.859-4.153-4.152H74.759z"/>
			<path fill="#D6D6D6" d="M87.371,73.539c0,2.293-1.858,4.152-4.152,4.152s-4.152-1.859-4.152-4.152H87.371z"/>
			<path fill="#D6D6D6" d="M68.455,81.814c0,2.295-1.859,4.152-4.153,4.152c-2.293,0-4.151-1.857-4.151-4.152H68.455z"/>
			<path fill="#D6D6D6" d="M81.064,81.814c0,2.295-1.857,4.152-4.15,4.152s-4.153-1.857-4.153-4.152H81.064z"/>
			<path fill="#D6D6D6" d="M93.677,81.814c0,2.295-1.86,4.152-4.152,4.152s-4.151-1.857-4.151-4.152H93.677z"/>
			<path fill="#D6D6D6" d="M62.148,89.908c0,2.296-1.857,4.152-4.151,4.152c-2.293,0-4.15-1.856-4.15-4.152H62.148z"/>
			<path fill="#D6D6D6" d="M74.759,89.908c0,2.296-1.857,4.152-4.149,4.152c-2.295,0-4.153-1.856-4.153-4.152H74.759z"/>
			<path fill="#D6D6D6" d="M87.371,89.908c0,2.296-1.858,4.152-4.152,4.152s-4.152-1.856-4.152-4.152H87.371z"/>
			<path fill="#D6D6D6" d="M99.98,89.908c0,2.296-1.857,4.152-4.15,4.152s-4.152-1.856-4.152-4.152H99.98z"/>
			<path fill="#D6D6D6" d="M68.455,98.185c0,2.295-1.859,4.152-4.153,4.152c-2.293,0-4.151-1.857-4.151-4.152H68.455z"/>
			<path fill="#D6D6D6" d="M81.064,98.185c0,2.295-1.857,4.152-4.15,4.152s-4.153-1.857-4.153-4.152H81.064z"/>
			<path fill="#D6D6D6" d="M93.677,98.185c0,2.295-1.86,4.152-4.152,4.152s-4.151-1.857-4.151-4.152H93.677z"/>
			<path fill="#D6D6D6" d="M74.759,106.279c0,2.295-1.857,4.152-4.149,4.152c-2.295,0-4.153-1.857-4.153-4.152H74.759z"/>
			<path fill="#D6D6D6" d="M87.371,106.279c0,2.295-1.858,4.152-4.152,4.152s-4.152-1.857-4.152-4.152H87.371z"/>
		</g>
		<g>
			<circle fill="#C2DDEB" cx="61.554" cy="38.516" r="12.084"/>
			<circle cx="61.554" cy="38.516" r="7.561"/>
			<circle fill="#FFFFFF" cx="63.458" cy="35.717" r="2.798"/>
		</g>
		<g>
			<circle fill="#C2DDEB" cx="91.119" cy="38.516" r="12.086"/>
			<circle cx="91.119" cy="38.516" r="7.561"/>
			<circle fill="#FFFFFF" cx="93.023" cy="35.717" r="2.799"/>
		</g>
	</g>
	<g>
		<path fill="#FF7F2B" d="M101.904,124.798c0,3.186-1.76,5.768-3.924,5.768c-2.169,0-3.928-2.582-3.928-5.768    c0,3.186-1.758,5.768-3.927,5.768c-2.167,0-3.927-2.582-3.927-5.768c0,3.186-1.756,5.768-3.926,5.768    c-2.166,0-3.925-2.582-3.925-5.768c0-4.504,5.257-8.152,11.743-8.152c6.484,0,11.742,3.648,11.742,8.152H101.904z"/>
		<path fill="#FF7F2B" d="M75.119,124.798c0,3.186-1.759,5.768-3.926,5.768c-2.168,0-3.927-2.582-3.927-5.768    c0,3.186-1.756,5.768-3.926,5.768c-2.168,0-3.923-2.582-3.923-5.768c0,3.186-1.76,5.768-3.928,5.768    c-2.167,0-3.925-2.582-3.925-5.768c0-4.504,5.257-8.152,11.742-8.152c6.486,0,11.746,3.648,11.746,8.152H75.119z"/>
	</g>
</g>
</svg>