<svg id="Layer_1" data-name="Layer 1" xmlns="http://www.w3.org/2000/svg" viewBox="0 0 400 400"><defs><style>.cls-1{fill:#fff;}.cls-2{fill:#212121;}.cls-3{fill:#502d17;}.cls-4{fill:#794422;}.cls-5{fill:#ff7f2b;}.cls-6{fill:#d6d6d6;}.cls-7{fill:#c2ddeb;}</style></defs><rect width="400" height="400"/><g id="d66f640e-f1cf-4f70-a07d-e9eeeba8339c"><rect class="cls-1" width="400" height="400"/></g><g id="_194f0fc1-48c7-4c26-9f46-c6b12e1a361f" data-name="194f0fc1-48c7-4c26-9f46-c6b12e1a361f"><circle class="cls-2" cx="200" cy="200" r="185.85"/></g><polygon class="cls-1" points="106.67 305.05 102.58 300.96 124.97 278.56 88.08 241.68 92.19 237.59 133.17 278.56 106.67 305.05"/><rect class="cls-1" x="129.05" y="275.66" width="156.86" height="5.8"/><path class="cls-3" d="M142.3,98.85a3.44,3.44,0,0,1,4.61-3.61l32.55,12-32.67,31.52Z"/><path class="cls-3" d="M257.41,98.85a3.43,3.43,0,0,0-4.6-3.61l-32.56,12,32.68,31.52Z"/><ellipse class="cls-4" cx="200.24" cy="204.45" rx="78.58" ry="67.45"/><path class="cls-3" d="M265.26,186c0,50.3-29.11,91.08-65,91.08s-65-40.78-65-91.08,29.11-91.1,65-91.1S265.26,135.72,265.26,186Z"/><ellipse class="cls-1" cx="173.99" cy="155.05" rx="30.32" ry="34.54"/><path class="cls-1" d="M245.53,223.68c0,23.27-20.28,42.14-45.29,42.14S155,247,155,223.68s20.27-42.16,45.28-42.16S245.53,200.39,245.53,223.68Z"/><path class="cls-1" d="M256.24,155c0,19.08-13.58,34.54-30.33,34.54S195.6,174.12,195.6,155s13.57-34.55,30.31-34.55S256.24,136,256.24,155Z"/><path class="cls-5" d="M197.75,166.81a7,7,0,0,1,5.21.05,30.79,30.79,0,0,1,12.4,8.83,4,4,0,0,1,.26,4.63,51.93,51.93,0,0,1-13,13.79,3.68,3.68,0,0,1-4.45,0,51.61,51.61,0,0,1-13-13.79,3.89,3.89,0,0,1,.27-4.58A28.56,28.56,0,0,1,197.75,166.81Z"/><path class="cls-6" d="M197.22,202.31a6.06,6.06,0,0,1-12.12,0Z"/><path class="cls-6" d="M215.63,202.31a6.06,6.06,0,0,1-12.12,0Z"/><path class="cls-6" d="M188,214.39a6.06,6.06,0,0,1-12.12,0Z"/><path class="cls-6" d="M206.44,214.39a6.06,6.06,0,0,1-12.12,0Z"/><path class="cls-6" d="M224.84,214.39a6.06,6.06,0,0,1-12.12,0Z"/><path class="cls-6" d="M178.82,226.22a6.06,6.06,0,1,1-12.12,0Z"/><path class="cls-6" d="M197.22,226.22a6.06,6.06,0,0,1-12.12,0Z"/><path class="cls-6" d="M215.63,226.22a6.06,6.06,0,0,1-12.12,0Z"/><path class="cls-6" d="M234.06,226.22a6.07,6.07,0,0,1-12.13,0Z"/><path class="cls-6" d="M188,238.3a6.06,6.06,0,1,1-12.12,0Z"/><path class="cls-6" d="M206.44,238.3a6.06,6.06,0,1,1-12.12,0Z"/><path class="cls-6" d="M224.84,238.3a6.06,6.06,0,1,1-12.12,0Z"/><path class="cls-6" d="M197.22,250.12a6.06,6.06,0,0,1-12.12,0Z"/><path class="cls-6" d="M215.63,250.12a6.06,6.06,0,0,1-12.12,0Z"/><circle class="cls-7" cx="177.95" cy="151.16" r="17.64"/><circle cx="177.95" cy="151.18" r="11.04"/><circle class="cls-1" cx="180.74" cy="147.09" r="4.09"/><circle class="cls-7" cx="221.12" cy="151.18" r="17.65"/><circle cx="221.12" cy="151.18" r="11.04"/><circle class="cls-1" cx="223.89" cy="147.09" r="4.09"/><path class="cls-5" d="M236.85,277.14c0,4.66-2.57,8.42-5.73,8.42s-5.73-3.76-5.73-8.42c0,4.66-2.57,8.42-5.74,8.42s-5.73-3.76-5.73-8.42c0,4.66-2.56,8.42-5.73,8.42s-5.73-3.76-5.73-8.42c0-6.57,7.67-11.9,17.14-11.9s17.15,5.33,17.15,11.9Z"/><path class="cls-5" d="M197.76,277.14c0,4.66-2.57,8.42-5.73,8.42s-5.74-3.76-5.74-8.42c0,4.66-2.56,8.42-5.73,8.42s-5.73-3.76-5.73-8.42c0,4.66-2.57,8.42-5.73,8.42s-5.73-3.76-5.73-8.42c0-6.57,7.67-11.9,17.14-11.9s17.15,5.33,17.15,11.9Z"/><line class="cls-2" x1="200.38" y1="200" x2="15.65" y2="200"/></svg>