<?xml version="1.0" encoding="UTF-8" standalone="no" ?>
<!DOCTYPE svg PUBLIC "-//W3C//DTD SVG 1.1//EN" "http://www.w3.org/Graphics/SVG/1.1/DTD/svg11.dtd">
<svg xmlns="http://www.w3.org/2000/svg" xmlns:xlink="http://www.w3.org/1999/xlink" version="1.1" width="400" height="400" viewBox="0 0 400 400" xml:space="preserve">
<desc>Created with Fabric.js 4.2.0</desc>
<defs>
</defs>
<rect x="0" y="0" width="100%" height="100%" fill="transparent"></rect>
<g transform="matrix(Infinity NaN NaN Infinity 0 0)" id="aa5a7c09-e92e-4eba-a8f0-27e98fdbe25f"  >
</g>
<g transform="matrix(1 0 0 1 200 200)" id="d66f640e-f1cf-4f70-a07d-e9eeeba8339c"  >
<rect style="stroke: none; stroke-width: 1; stroke-dasharray: none; stroke-linecap: butt; stroke-dashoffset: 0; stroke-linejoin: miter; stroke-miterlimit: 4; fill: rgb(255,255,255); fill-rule: nonzero; opacity: 1;" vector-effect="non-scaling-stroke"  x="-200" y="-200" rx="0" ry="0" width="400" height="400" />
</g>
<g transform="matrix(5.31 0 0 5.31 200 200)" id="194f0fc1-48c7-4c26-9f46-c6b12e1a361f"  >
<circle style="stroke: rgb(0,0,0); stroke-width: 0; stroke-dasharray: none; stroke-linecap: butt; stroke-dashoffset: 0; stroke-linejoin: miter; stroke-miterlimit: 4; fill: rgb(33,33,33); fill-rule: nonzero; opacity: 1;" vector-effect="non-scaling-stroke"  cx="0" cy="0" r="35" />
</g>
<g transform="matrix(1.46 0 0 1.46 200 200)"  >
<g style="" vector-effect="non-scaling-stroke"   >
		<g transform="matrix(1 0 0 1 -52.31 48.85)"  >
<polygon style="stroke: none; stroke-width: 1; stroke-dasharray: none; stroke-linecap: butt; stroke-dashoffset: 0; stroke-linejoin: miter; stroke-miterlimit: 4; fill: rgb(255,255,255); fill-rule: nonzero; opacity: 1;" vector-effect="non-scaling-stroke"  points="-2.71,23.1 -5.51,20.3 9.82,4.96 -15.44,-20.3 -12.63,-23.1 15.44,4.96 " />
</g>
		<g transform="matrix(1 0 0 1 14.03 53.81)"  >
<rect style="stroke: none; stroke-width: 1; stroke-dasharray: none; stroke-linecap: butt; stroke-dashoffset: 0; stroke-linejoin: miter; stroke-miterlimit: 4; fill: rgb(255,255,255); fill-rule: nonzero; opacity: 1;" vector-effect="non-scaling-stroke"  x="-53.72" y="-1.985" rx="0" ry="0" width="107.44" height="3.97" />
</g>
		<g transform="matrix(1 0 0 1 -17.9 -56.93)"  >
<path style="stroke: none; stroke-width: 1; stroke-dasharray: none; stroke-linecap: butt; stroke-dashoffset: 0; stroke-linejoin: miter; stroke-miterlimit: 4; fill: rgb(80,45,23); fill-rule: nonzero; opacity: 1;" vector-effect="non-scaling-stroke"  transform=" translate(-49.85, -15.03)" d="M 37.136 2.677 C 36.943000000000005 0.935 38.645 -0.3999999999999999 40.288000000000004 0.20500000000000007 L 62.589 8.414 L 40.206999999999994 30.003999999999998 L 37.136 2.677 z" stroke-linecap="round" />
</g>
		<g transform="matrix(1 0 0 1 35.51 -56.93)"  >
<path style="stroke: none; stroke-width: 1; stroke-dasharray: none; stroke-linecap: butt; stroke-dashoffset: 0; stroke-linejoin: miter; stroke-miterlimit: 4; fill: rgb(80,45,23); fill-rule: nonzero; opacity: 1;" vector-effect="non-scaling-stroke"  transform=" translate(-103.27, -15.03)" d="M 115.984 2.677 C 116.17899999999999 0.935 114.476 -0.3999999999999999 112.836 0.20500000000000007 L 90.531 8.414 L 112.918 30.003999999999998 L 115.984 2.677 z" stroke-linecap="round" />
</g>
		<g transform="matrix(1 0 0 1 9.07 3.05)"  >
<ellipse style="stroke: none; stroke-width: 1; stroke-dasharray: none; stroke-linecap: butt; stroke-dashoffset: 0; stroke-linejoin: miter; stroke-miterlimit: 4; fill: rgb(121,68,34); fill-rule: nonzero; opacity: 1;" vector-effect="non-scaling-stroke"  cx="0" cy="0" rx="53.819" ry="46.2" />
</g>
		<g transform="matrix(1 0 0 1 9.07 -9.57)"  >
<path style="stroke: none; stroke-width: 1; stroke-dasharray: none; stroke-linecap: butt; stroke-dashoffset: 0; stroke-linejoin: miter; stroke-miterlimit: 4; fill: rgb(80,45,23); fill-rule: nonzero; opacity: 1;" vector-effect="non-scaling-stroke"  transform=" translate(-76.82, -62.39)" d="M 121.354 62.395 C 121.354 96.851 101.416 124.785 76.821 124.785 C 52.227 124.785 32.29 96.851 32.29 62.394999999999996 C 32.29 27.934 52.227 0 76.82 0 C 101.416 0 121.354 27.934 121.354 62.395 z" stroke-linecap="round" />
</g>
		<g transform="matrix(1 0 0 1 -8.91 -30.79)"  >
<ellipse style="stroke: none; stroke-width: 1; stroke-dasharray: none; stroke-linecap: butt; stroke-dashoffset: 0; stroke-linejoin: miter; stroke-miterlimit: 4; fill: rgb(255,255,255); fill-rule: nonzero; opacity: 1;" vector-effect="non-scaling-stroke"  cx="0" cy="0" rx="20.767" ry="23.658" />
</g>
		<g transform="matrix(1 0 0 1 9.07 16.21)"  >
<path style="stroke: none; stroke-width: 1; stroke-dasharray: none; stroke-linecap: butt; stroke-dashoffset: 0; stroke-linejoin: miter; stroke-miterlimit: 4; fill: rgb(255,255,255); fill-rule: nonzero; opacity: 1;" vector-effect="non-scaling-stroke"  transform=" translate(-76.82, -88.17)" d="M 107.838 88.176 C 107.838 104.118 93.951 117.044 76.82 117.044 C 59.69 117.044 45.803999999999995 104.118 45.803999999999995 88.176 C 45.803999999999995 72.229 59.69 59.303 76.82 59.303 C 93.951 59.304 107.838 72.229 107.838 88.176 z" stroke-linecap="round" />
</g>
		<g transform="matrix(1 0 0 1 26.66 -30.8)"  >
<path style="stroke: none; stroke-width: 1; stroke-dasharray: none; stroke-linecap: butt; stroke-dashoffset: 0; stroke-linejoin: miter; stroke-miterlimit: 4; fill: rgb(255,255,255); fill-rule: nonzero; opacity: 1;" vector-effect="non-scaling-stroke"  transform=" translate(-94.41, -41.16)" d="M 115.172 41.165 C 115.172 54.231 105.875 64.82300000000001 94.40299999999999 64.82300000000001 C 82.937 64.82300000000001 73.63799999999999 54.232000000000006 73.63799999999999 41.165000000000006 C 73.63799999999999 28.09700000000001 82.93699999999998 17.504000000000005 94.40299999999999 17.504000000000005 C 105.875 17.503 115.172 28.097 115.172 41.165 z" stroke-linecap="round" />
</g>
		<g transform="matrix(1 0 0 1 9.16 -13.29)"  >
<path style="stroke: none; stroke-width: 1; stroke-dasharray: none; stroke-linecap: butt; stroke-dashoffset: 0; stroke-linejoin: miter; stroke-miterlimit: 4; fill: rgb(255,127,43); fill-rule: nonzero; opacity: 1;" vector-effect="non-scaling-stroke"  transform=" translate(-76.91, -58.67)" d="M 75.116 49.227 C 76.262 48.775 77.546 48.788999999999994 78.681 49.263999999999996 C 82.30199999999999 50.769999999999996 84.89399999999999 52.62 87.172 55.309999999999995 C 87.92699999999999 56.202999999999996 87.972 57.489999999999995 87.351 58.47899999999999 C 84.978 62.260999999999996 82.102 65.10399999999998 78.435 67.92299999999999 C 77.538 68.61199999999998 76.281 68.61199999999998 75.384 67.92299999999999 C 71.717 65.10499999999999 68.841 62.26099999999999 66.467 58.478999999999985 C 65.851 57.49899999999999 65.905 56.225999999999985 66.652 55.341999999999985 C 69.018 52.547 71.327 50.718 75.116 49.227 z" stroke-linecap="round" />
</g>
		<g transform="matrix(1 0 0 1 2.85 3.66)"  >
<path style="stroke: none; stroke-width: 1; stroke-dasharray: none; stroke-linecap: butt; stroke-dashoffset: 0; stroke-linejoin: miter; stroke-miterlimit: 4; fill: rgb(214,214,214); fill-rule: nonzero; opacity: 1;" vector-effect="non-scaling-stroke"  transform=" translate(-70.61, -75.62)" d="M 74.759 73.539 C 74.759 75.83200000000001 72.902 77.691 70.61 77.691 C 68.315 77.691 66.457 75.83200000000001 66.457 73.539 L 74.759 73.539 z" stroke-linecap="round" />
</g>
		<g transform="matrix(1 0 0 1 15.46 3.66)"  >
<path style="stroke: none; stroke-width: 1; stroke-dasharray: none; stroke-linecap: butt; stroke-dashoffset: 0; stroke-linejoin: miter; stroke-miterlimit: 4; fill: rgb(214,214,214); fill-rule: nonzero; opacity: 1;" vector-effect="non-scaling-stroke"  transform=" translate(-83.22, -75.62)" d="M 87.371 73.539 C 87.371 75.83200000000001 85.51299999999999 77.691 83.219 77.691 C 80.925 77.691 79.067 75.83200000000001 79.067 73.539 L 87.371 73.539 z" stroke-linecap="round" />
</g>
		<g transform="matrix(1 0 0 1 -3.45 11.93)"  >
<path style="stroke: none; stroke-width: 1; stroke-dasharray: none; stroke-linecap: butt; stroke-dashoffset: 0; stroke-linejoin: miter; stroke-miterlimit: 4; fill: rgb(214,214,214); fill-rule: nonzero; opacity: 1;" vector-effect="non-scaling-stroke"  transform=" translate(-64.3, -83.89)" d="M 68.455 81.814 C 68.455 84.109 66.596 85.966 64.30199999999999 85.966 C 62.00899999999999 85.966 60.150999999999996 84.109 60.150999999999996 81.814 L 68.455 81.814 z" stroke-linecap="round" />
</g>
		<g transform="matrix(1 0 0 1 9.16 11.93)"  >
<path style="stroke: none; stroke-width: 1; stroke-dasharray: none; stroke-linecap: butt; stroke-dashoffset: 0; stroke-linejoin: miter; stroke-miterlimit: 4; fill: rgb(214,214,214); fill-rule: nonzero; opacity: 1;" vector-effect="non-scaling-stroke"  transform=" translate(-76.91, -83.89)" d="M 81.064 81.814 C 81.064 84.109 79.207 85.966 76.91399999999999 85.966 C 74.62099999999998 85.966 72.76099999999998 84.109 72.76099999999998 81.814 L 81.064 81.814 z" stroke-linecap="round" />
</g>
		<g transform="matrix(1 0 0 1 21.77 11.93)"  >
<path style="stroke: none; stroke-width: 1; stroke-dasharray: none; stroke-linecap: butt; stroke-dashoffset: 0; stroke-linejoin: miter; stroke-miterlimit: 4; fill: rgb(214,214,214); fill-rule: nonzero; opacity: 1;" vector-effect="non-scaling-stroke"  transform=" translate(-89.53, -83.89)" d="M 93.677 81.814 C 93.677 84.109 91.81700000000001 85.966 89.525 85.966 C 87.233 85.966 85.37400000000001 84.109 85.37400000000001 81.814 L 93.677 81.814 z" stroke-linecap="round" />
</g>
		<g transform="matrix(1 0 0 1 -9.75 20.03)"  >
<path style="stroke: none; stroke-width: 1; stroke-dasharray: none; stroke-linecap: butt; stroke-dashoffset: 0; stroke-linejoin: miter; stroke-miterlimit: 4; fill: rgb(214,214,214); fill-rule: nonzero; opacity: 1;" vector-effect="non-scaling-stroke"  transform=" translate(-58, -91.98)" d="M 62.148 89.908 C 62.148 92.20400000000001 60.291000000000004 94.06 57.997 94.06 C 55.704 94.06 53.847 92.20400000000001 53.847 89.908 L 62.148 89.908 z" stroke-linecap="round" />
</g>
		<g transform="matrix(1 0 0 1 2.85 20.03)"  >
<path style="stroke: none; stroke-width: 1; stroke-dasharray: none; stroke-linecap: butt; stroke-dashoffset: 0; stroke-linejoin: miter; stroke-miterlimit: 4; fill: rgb(214,214,214); fill-rule: nonzero; opacity: 1;" vector-effect="non-scaling-stroke"  transform=" translate(-70.61, -91.98)" d="M 74.759 89.908 C 74.759 92.20400000000001 72.902 94.06 70.61 94.06 C 68.315 94.06 66.457 92.20400000000001 66.457 89.908 L 74.759 89.908 z" stroke-linecap="round" />
</g>
		<g transform="matrix(1 0 0 1 15.46 20.03)"  >
<path style="stroke: none; stroke-width: 1; stroke-dasharray: none; stroke-linecap: butt; stroke-dashoffset: 0; stroke-linejoin: miter; stroke-miterlimit: 4; fill: rgb(214,214,214); fill-rule: nonzero; opacity: 1;" vector-effect="non-scaling-stroke"  transform=" translate(-83.22, -91.98)" d="M 87.371 89.908 C 87.371 92.20400000000001 85.51299999999999 94.06 83.219 94.06 C 80.925 94.06 79.067 92.20400000000001 79.067 89.908 L 87.371 89.908 z" stroke-linecap="round" />
</g>
		<g transform="matrix(1 0 0 1 28.08 20.03)"  >
<path style="stroke: none; stroke-width: 1; stroke-dasharray: none; stroke-linecap: butt; stroke-dashoffset: 0; stroke-linejoin: miter; stroke-miterlimit: 4; fill: rgb(214,214,214); fill-rule: nonzero; opacity: 1;" vector-effect="non-scaling-stroke"  transform=" translate(-95.83, -91.98)" d="M 99.98 89.908 C 99.98 92.20400000000001 98.123 94.06 95.83 94.06 C 93.53699999999999 94.06 91.678 92.20400000000001 91.678 89.908 L 99.98 89.908 z" stroke-linecap="round" />
</g>
		<g transform="matrix(1 0 0 1 -3.45 28.31)"  >
<path style="stroke: none; stroke-width: 1; stroke-dasharray: none; stroke-linecap: butt; stroke-dashoffset: 0; stroke-linejoin: miter; stroke-miterlimit: 4; fill: rgb(214,214,214); fill-rule: nonzero; opacity: 1;" vector-effect="non-scaling-stroke"  transform=" translate(-64.3, -100.26)" d="M 68.455 98.185 C 68.455 100.48 66.596 102.337 64.30199999999999 102.337 C 62.00899999999999 102.337 60.150999999999996 100.48 60.150999999999996 98.185 L 68.455 98.185 z" stroke-linecap="round" />
</g>
		<g transform="matrix(1 0 0 1 9.16 28.31)"  >
<path style="stroke: none; stroke-width: 1; stroke-dasharray: none; stroke-linecap: butt; stroke-dashoffset: 0; stroke-linejoin: miter; stroke-miterlimit: 4; fill: rgb(214,214,214); fill-rule: nonzero; opacity: 1;" vector-effect="non-scaling-stroke"  transform=" translate(-76.91, -100.26)" d="M 81.064 98.185 C 81.064 100.48 79.207 102.337 76.91399999999999 102.337 C 74.62099999999998 102.337 72.76099999999998 100.48 72.76099999999998 98.185 L 81.064 98.185 z" stroke-linecap="round" />
</g>
		<g transform="matrix(1 0 0 1 21.77 28.31)"  >
<path style="stroke: none; stroke-width: 1; stroke-dasharray: none; stroke-linecap: butt; stroke-dashoffset: 0; stroke-linejoin: miter; stroke-miterlimit: 4; fill: rgb(214,214,214); fill-rule: nonzero; opacity: 1;" vector-effect="non-scaling-stroke"  transform=" translate(-89.53, -100.26)" d="M 93.677 98.185 C 93.677 100.48 91.81700000000001 102.337 89.525 102.337 C 87.233 102.337 85.37400000000001 100.48 85.37400000000001 98.185 L 93.677 98.185 z" stroke-linecap="round" />
</g>
		<g transform="matrix(1 0 0 1 2.85 36.4)"  >
<path style="stroke: none; stroke-width: 1; stroke-dasharray: none; stroke-linecap: butt; stroke-dashoffset: 0; stroke-linejoin: miter; stroke-miterlimit: 4; fill: rgb(214,214,214); fill-rule: nonzero; opacity: 1;" vector-effect="non-scaling-stroke"  transform=" translate(-70.61, -108.35)" d="M 74.759 106.279 C 74.759 108.574 72.902 110.431 70.61 110.431 C 68.315 110.431 66.457 108.574 66.457 106.279 L 74.759 106.279 z" stroke-linecap="round" />
</g>
		<g transform="matrix(1 0 0 1 15.46 36.4)"  >
<path style="stroke: none; stroke-width: 1; stroke-dasharray: none; stroke-linecap: butt; stroke-dashoffset: 0; stroke-linejoin: miter; stroke-miterlimit: 4; fill: rgb(214,214,214); fill-rule: nonzero; opacity: 1;" vector-effect="non-scaling-stroke"  transform=" translate(-83.22, -108.35)" d="M 87.371 106.279 C 87.371 108.574 85.51299999999999 110.431 83.219 110.431 C 80.925 110.431 79.067 108.574 79.067 106.279 L 87.371 106.279 z" stroke-linecap="round" />
</g>
		<g transform="matrix(1 0 0 1 -6.2 -33.45)"  >
<circle style="stroke: none; stroke-width: 1; stroke-dasharray: none; stroke-linecap: butt; stroke-dashoffset: 0; stroke-linejoin: miter; stroke-miterlimit: 4; fill: rgb(194,221,235); fill-rule: nonzero; opacity: 1;" vector-effect="non-scaling-stroke"  cx="0" cy="0" r="12.084" />
</g>
		<g transform="matrix(1 0 0 1 -6.2 -33.44)"  >
<circle style="stroke: none; stroke-width: 1; stroke-dasharray: none; stroke-linecap: butt; stroke-dashoffset: 0; stroke-linejoin: miter; stroke-miterlimit: 4; fill: rgb(0,0,0); fill-rule: nonzero; opacity: 1;" vector-effect="non-scaling-stroke"  cx="0" cy="0" r="7.561" />
</g>
		<g transform="matrix(1 0 0 1 -4.29 -36.24)"  >
<circle style="stroke: none; stroke-width: 1; stroke-dasharray: none; stroke-linecap: butt; stroke-dashoffset: 0; stroke-linejoin: miter; stroke-miterlimit: 4; fill: rgb(255,255,255); fill-rule: nonzero; opacity: 1;" vector-effect="non-scaling-stroke"  cx="0" cy="0" r="2.798" />
</g>
		<g transform="matrix(1 0 0 1 23.37 -33.44)"  >
<circle style="stroke: none; stroke-width: 1; stroke-dasharray: none; stroke-linecap: butt; stroke-dashoffset: 0; stroke-linejoin: miter; stroke-miterlimit: 4; fill: rgb(194,221,235); fill-rule: nonzero; opacity: 1;" vector-effect="non-scaling-stroke"  cx="0" cy="0" r="12.086" />
</g>
		<g transform="matrix(1 0 0 1 23.37 -33.44)"  >
<circle style="stroke: none; stroke-width: 1; stroke-dasharray: none; stroke-linecap: butt; stroke-dashoffset: 0; stroke-linejoin: miter; stroke-miterlimit: 4; fill: rgb(0,0,0); fill-rule: nonzero; opacity: 1;" vector-effect="non-scaling-stroke"  cx="0" cy="0" r="7.561" />
</g>
		<g transform="matrix(1 0 0 1 25.27 -36.24)"  >
<circle style="stroke: none; stroke-width: 1; stroke-dasharray: none; stroke-linecap: butt; stroke-dashoffset: 0; stroke-linejoin: miter; stroke-miterlimit: 4; fill: rgb(255,255,255); fill-rule: nonzero; opacity: 1;" vector-effect="non-scaling-stroke"  cx="0" cy="0" r="2.799" />
</g>
		<g transform="matrix(1 0 0 1 22.37 51.65)"  >
<path style="stroke: none; stroke-width: 1; stroke-dasharray: none; stroke-linecap: butt; stroke-dashoffset: 0; stroke-linejoin: miter; stroke-miterlimit: 4; fill: rgb(255,127,43); fill-rule: nonzero; opacity: 1;" vector-effect="non-scaling-stroke"  transform=" translate(-90.13, -123.61)" d="M 101.904 124.798 C 101.904 127.98400000000001 100.14399999999999 130.566 97.97999999999999 130.566 C 95.81099999999999 130.566 94.05199999999999 127.98400000000001 94.05199999999999 124.798 C 94.05199999999999 127.98400000000001 92.294 130.566 90.12499999999999 130.566 C 87.95799999999998 130.566 86.19799999999998 127.98400000000001 86.19799999999998 124.798 C 86.19799999999998 127.98400000000001 84.44199999999998 130.566 82.27199999999998 130.566 C 80.10599999999998 130.566 78.34699999999998 127.98400000000001 78.34699999999998 124.798 C 78.34699999999998 120.294 83.60399999999998 116.646 90.08999999999997 116.646 C 96.57399999999997 116.646 101.83199999999998 120.294 101.83199999999998 124.798 L 101.904 124.798 z" stroke-linecap="round" />
</g>
		<g transform="matrix(1 0 0 1 -4.41 51.65)"  >
<path style="stroke: none; stroke-width: 1; stroke-dasharray: none; stroke-linecap: butt; stroke-dashoffset: 0; stroke-linejoin: miter; stroke-miterlimit: 4; fill: rgb(255,127,43); fill-rule: nonzero; opacity: 1;" vector-effect="non-scaling-stroke"  transform=" translate(-63.34, -123.61)" d="M 75.119 124.798 C 75.119 127.98400000000001 73.36 130.566 71.193 130.566 C 69.02499999999999 130.566 67.26599999999999 127.98400000000001 67.26599999999999 124.798 C 67.26599999999999 127.98400000000001 65.50999999999999 130.566 63.33999999999999 130.566 C 61.17199999999999 130.566 59.41699999999999 127.98400000000001 59.41699999999999 124.798 C 59.41699999999999 127.98400000000001 57.65699999999999 130.566 55.48899999999999 130.566 C 53.32199999999999 130.566 51.56399999999999 127.98400000000001 51.56399999999999 124.798 C 51.56399999999999 120.294 56.82099999999999 116.646 63.306 116.646 C 69.792 116.646 75.05199999999999 120.294 75.05199999999999 124.798 L 75.119 124.798 z" stroke-linecap="round" />
</g>
</g>
</g>
</svg>